<?xml version="1.0" encoding="UTF-8" standalone="no"?>
<svg
   xmlns:dc="http://purl.org/dc/elements/1.1/"
   xmlns:cc="http://creativecommons.org/ns#"
   xmlns:rdf="http://www.w3.org/1999/02/22-rdf-syntax-ns#"
   xmlns:svg="http://www.w3.org/2000/svg"
   xmlns="http://www.w3.org/2000/svg"
   xmlns:sodipodi="http://sodipodi.sourceforge.net/DTD/sodipodi-0.dtd"
   xmlns:inkscape="http://www.inkscape.org/namespaces/inkscape"
   class="big-logo"
   version="1.1"
   id="Capa_1"
   x="0px"
   y="0px"
   viewBox="0 0 950 140"
   style="enable-background:new 0 0 950 140;"
   xml:space="preserve"
   height="59px"
   sodipodi:docname="big-logo.svg"
   inkscape:version="0.92.4 (5da689c313, 2019-01-14)"><metadata
   id="metadata234"><rdf:RDF><cc:Work
       rdf:about=""><dc:format>image/svg+xml</dc:format><dc:type
         rdf:resource="http://purl.org/dc/dcmitype/StillImage" /></cc:Work></rdf:RDF></metadata><defs
   id="defs232"><style
     id="style236">.cls-1{fill:#eee8f4;}.cls-2{fill:#0b3954;}.cls-3{fill:#f1e9f4;}</style></defs><sodipodi:namedview
   pagecolor="#ffffff"
   bordercolor="#666666"
   borderopacity="1"
   objecttolerance="10"
   gridtolerance="10"
   guidetolerance="10"
   inkscape:pageopacity="0"
   inkscape:pageshadow="2"
   inkscape:window-width="1920"
   inkscape:window-height="1017"
   id="namedview230"
   showgrid="false"
   inkscape:zoom="1.8578947"
   inkscape:cx="475"
   inkscape:cy="29.5"
   inkscape:window-x="-8"
   inkscape:window-y="-8"
   inkscape:window-maximized="1"
   inkscape:current-layer="Capa_1" /><style
   type="text/css"
   id="style123">
            .st0{fill:#EFE9F4;}
            .st1{fill:#0B3954;}
            .st2{fill:none;stroke:#EFE9F4;stroke-width:11;stroke-miterlimit:10;}
        </style>
        
        
        
        
<g
   id="g407"
   transform="matrix(2.0629209,0,0,2.0629209,61.197104,9.6655613)"><path
     id="path242"
     d="M 30.37,41.48 A 15.49,15.49 0 0 1 28.12,41.31 15,15 0 0 1 21.41,14.4 v 0 A 15,15 0 0 1 45.18,28.69 15,15 0 0 1 30.37,41.48 Z M 24.22,18.19 a 10.29,10.29 0 1 0 14.39,2.16 10.27,10.27 0 0 0 -14.39,-2.16 z"
     class="cls-1"
     inkscape:connector-curvature="0"
     style="fill:#eee8f4" /><rect
     id="rect244"
     transform="rotate(-36.5,13.827178,38.519214)"
     height="4.5"
     width="15.65"
     y="36.27"
     x="6"
     class="cls-1"
     style="fill:#eee8f4" /><path
     id="path246"
     d="m 22,17.84 c 0,1.07 -0.43,1.67 -1.16,1.67 -0.73,0 -1.2,-0.6 -1.2,-1.67 0,-1.07 0.43,-1.67 1.2,-1.67 0.77,0 1.16,0.6 1.16,1.67 z m -1.84,0 c 0,0.86 0.21,1.25 0.64,1.25 0.43,0 0.64,-0.39 0.64,-1.25 0,-0.86 -0.21,-1.24 -0.64,-1.24 -0.43,0 -0.67,0.4 -0.67,1.24 z"
     class="cls-1"
     inkscape:connector-curvature="0"
     style="fill:#eee8f4" /><path
     id="path248"
     d="m 23.86,16.21 v 3.3 h -0.52 v -2.78 h -0.68 v -0.52 z"
     class="cls-1"
     inkscape:connector-curvature="0"
     style="fill:#eee8f4" /><path
     id="path250"
     d="m 26.6,16.21 v 3.3 H 26.09 V 16.73 H 25.4 v -0.52 z"
     class="cls-1"
     inkscape:connector-curvature="0"
     style="fill:#eee8f4" /><path
     id="path252"
     d="m 30.25,17.84 c 0,1.07 -0.43,1.67 -1.16,1.67 -0.73,0 -1.2,-0.6 -1.2,-1.67 0,-1.07 0.43,-1.67 1.2,-1.67 0.77,0 1.16,0.6 1.16,1.67 z m -1.85,0 c 0,0.86 0.22,1.25 0.65,1.25 0.43,0 0.64,-0.39 0.64,-1.25 0,-0.86 -0.21,-1.24 -0.64,-1.24 -0.43,0 -0.65,0.4 -0.65,1.24 z"
     class="cls-1"
     inkscape:connector-curvature="0"
     style="fill:#eee8f4" /><path
     id="path254"
     d="m 32.13,16.21 v 3.3 h -0.51 v -2.78 h -0.69 v -0.52 z"
     class="cls-1"
     inkscape:connector-curvature="0"
     style="fill:#eee8f4" /><path
     id="path256"
     d="m 35.78,17.84 c 0,1.07 -0.43,1.67 -1.16,1.67 -0.73,0 -1.2,-0.6 -1.2,-1.67 0,-1.07 0.43,-1.67 1.2,-1.67 0.77,0 1.16,0.6 1.16,1.67 z m -1.85,0 c 0,0.86 0.22,1.25 0.65,1.25 0.43,0 0.64,-0.39 0.64,-1.25 0,-0.86 -0.22,-1.24 -0.64,-1.24 -0.42,0 -0.65,0.4 -0.65,1.24 z"
     class="cls-1"
     inkscape:connector-curvature="0"
     style="fill:#eee8f4" /><path
     id="path258"
     d="m 38.52,17.84 c 0,1.07 -0.43,1.67 -1.16,1.67 -0.73,0 -1.2,-0.6 -1.2,-1.67 0,-1.07 0.43,-1.67 1.2,-1.67 0.77,0 1.16,0.6 1.16,1.67 z m -1.8,0 c 0,0.86 0.22,1.25 0.64,1.25 0.42,0 0.65,-0.39 0.65,-1.25 0,-0.86 -0.22,-1.24 -0.65,-1.24 -0.43,0 -0.64,0.4 -0.64,1.24 z"
     class="cls-1"
     inkscape:connector-curvature="0"
     style="fill:#eee8f4" /><path
     id="path260"
     d="m 40.41,16.21 v 3.3 h -0.52 v -2.78 h -0.68 v -0.52 z"
     class="cls-1"
     inkscape:connector-curvature="0"
     style="fill:#eee8f4" /><path
     id="path262"
     d="m 21.07,21.87 v 3.3 h -0.51 v -2.78 h -0.69 v -0.52 z"
     class="cls-1"
     inkscape:connector-curvature="0"
     style="fill:#eee8f4" /><path
     id="path264"
     d="m 24.72,23.5 c 0,1.07 -0.43,1.67 -1.16,1.67 -0.73,0 -1.2,-0.6 -1.2,-1.67 0,-1.07 0.43,-1.67 1.2,-1.67 0.77,0 1.16,0.6 1.16,1.67 z m -1.81,0 c 0,0.86 0.22,1.25 0.65,1.25 0.43,0 0.64,-0.39 0.64,-1.25 0,-0.86 -0.21,-1.24 -0.64,-1.24 -0.43,0 -0.65,0.43 -0.65,1.24 z"
     class="cls-1"
     inkscape:connector-curvature="0"
     style="fill:#eee8f4" /><path
     id="path266"
     d="m 27.5,23.5 c 0,1.07 -0.43,1.67 -1.15,1.67 -0.72,0 -1.21,-0.6 -1.21,-1.67 0,-1.07 0.43,-1.67 1.21,-1.67 0.78,0 1.15,0.6 1.15,1.67 z m -1.84,0 c 0,0.86 0.21,1.25 0.64,1.25 0.43,0 0.65,-0.39 0.65,-1.25 0,-0.86 -0.22,-1.24 -0.65,-1.24 -0.43,0 -0.64,0.43 -0.64,1.24 z"
     class="cls-1"
     inkscape:connector-curvature="0"
     style="fill:#eee8f4" /><path
     id="path268"
     d="m 29.39,21.87 v 3.3 h -0.52 v -2.78 h -0.68 v -0.52 z"
     class="cls-1"
     inkscape:connector-curvature="0"
     style="fill:#eee8f4" /><path
     id="path270"
     d="m 33,23.5 c 0,1.07 -0.42,1.67 -1.15,1.67 -0.73,0 -1.2,-0.6 -1.2,-1.67 0,-1.07 0.42,-1.67 1.2,-1.67 0.78,0 1.15,0.6 1.15,1.67 z m -1.84,0 c 0,0.86 0.21,1.25 0.64,1.25 0.43,0 0.65,-0.39 0.65,-1.25 0,-0.86 -0.22,-1.24 -0.65,-1.24 -0.43,0 -0.61,0.43 -0.61,1.24 z"
     class="cls-1"
     inkscape:connector-curvature="0"
     style="fill:#eee8f4" /><path
     id="path272"
     d="m 34.88,21.87 v 3.3 h -0.52 v -2.78 h -0.68 v -0.52 z"
     class="cls-1"
     inkscape:connector-curvature="0"
     style="fill:#eee8f4" /><path
     id="path274"
     d="m 38.52,23.5 c 0,1.07 -0.43,1.67 -1.16,1.67 -0.73,0 -1.2,-0.6 -1.2,-1.67 0,-1.07 0.43,-1.67 1.2,-1.67 0.77,0 1.16,0.6 1.16,1.67 z m -1.8,0 c 0,0.86 0.22,1.25 0.64,1.25 0.42,0 0.65,-0.39 0.65,-1.25 0,-0.86 -0.22,-1.24 -0.65,-1.24 -0.43,0 -0.64,0.43 -0.64,1.24 z"
     class="cls-1"
     inkscape:connector-curvature="0"
     style="fill:#eee8f4" /><path
     id="path276"
     d="m 40.41,21.87 v 3.3 h -0.52 v -2.78 h -0.68 v -0.52 z"
     class="cls-1"
     inkscape:connector-curvature="0"
     style="fill:#eee8f4" /><path
     id="path278"
     d="m 22,29.16 c 0,1.07 -0.43,1.67 -1.16,1.67 -0.73,0 -1.2,-0.6 -1.2,-1.67 0,-1.07 0.43,-1.67 1.2,-1.67 0.77,0 1.16,0.6 1.16,1.67 z m -1.84,0 c 0,0.86 0.21,1.25 0.64,1.25 0.43,0 0.64,-0.39 0.64,-1.25 0,-0.86 -0.21,-1.24 -0.64,-1.24 -0.43,0 -0.67,0.43 -0.67,1.24 z"
     class="cls-1"
     inkscape:connector-curvature="0"
     style="fill:#eee8f4" /><path
     id="path280"
     d="m 23.86,27.53 v 3.3 H 23.34 V 28 h -0.68 v -0.51 h 1.2 z"
     class="cls-1"
     inkscape:connector-curvature="0"
     style="fill:#eee8f4" /><path
     id="path282"
     d="m 26.6,27.53 v 3.3 H 26.09 V 28 H 25.4 v -0.51 h 1.2 z"
     class="cls-1"
     inkscape:connector-curvature="0"
     style="fill:#eee8f4" /><path
     id="path284"
     d="m 30.25,29.16 c 0,1.07 -0.43,1.67 -1.16,1.67 -0.73,0 -1.2,-0.6 -1.2,-1.67 0,-1.07 0.43,-1.67 1.2,-1.67 0.77,0 1.16,0.6 1.16,1.67 z m -1.85,0 c 0,0.86 0.22,1.25 0.65,1.25 0.43,0 0.64,-0.39 0.64,-1.25 0,-0.86 -0.21,-1.24 -0.64,-1.24 -0.43,0 -0.65,0.43 -0.65,1.24 z"
     class="cls-1"
     inkscape:connector-curvature="0"
     style="fill:#eee8f4" /><path
     id="path286"
     d="m 33,29.16 c 0,1.07 -0.42,1.67 -1.15,1.67 -0.73,0 -1.2,-0.6 -1.2,-1.67 0,-1.07 0.42,-1.67 1.2,-1.67 0.78,0 1.15,0.6 1.15,1.67 z m -1.84,0 c 0,0.86 0.21,1.25 0.64,1.25 0.43,0 0.65,-0.39 0.65,-1.25 0,-0.86 -0.22,-1.24 -0.65,-1.24 -0.43,0 -0.61,0.43 -0.61,1.24 z"
     class="cls-1"
     inkscape:connector-curvature="0"
     style="fill:#eee8f4" /><path
     id="path288"
     d="m 34.88,27.53 v 3.3 H 34.36 V 28 h -0.68 v -0.51 h 1.2 z"
     class="cls-1"
     inkscape:connector-curvature="0"
     style="fill:#eee8f4" /><path
     id="path290"
     d="m 38.52,29.16 c 0,1.07 -0.43,1.67 -1.16,1.67 -0.73,0 -1.2,-0.6 -1.2,-1.67 0,-1.07 0.43,-1.67 1.2,-1.67 0.77,0 1.16,0.6 1.16,1.67 z m -1.8,0 c 0,0.86 0.22,1.25 0.64,1.25 0.42,0 0.64,-0.41 0.64,-1.25 0,-0.84 -0.22,-1.24 -0.65,-1.24 -0.43,0 -0.63,0.43 -0.63,1.24 z"
     class="cls-1"
     inkscape:connector-curvature="0"
     style="fill:#eee8f4" /><path
     id="path292"
     d="m 41.31,29.16 c 0,1.07 -0.43,1.67 -1.16,1.67 -0.73,0 -1.2,-0.6 -1.2,-1.67 0,-1.07 0.43,-1.67 1.2,-1.67 0.77,0 1.16,0.6 1.16,1.67 z m -1.84,0 c 0,0.86 0.21,1.25 0.64,1.25 0.43,0 0.64,-0.39 0.64,-1.25 0,-0.86 -0.21,-1.24 -0.64,-1.24 -0.43,0 -0.64,0.43 -0.64,1.24 z"
     class="cls-1"
     inkscape:connector-curvature="0"
     style="fill:#eee8f4" /><path
     id="path294"
     d="m 21.07,33.19 v 3.3 h -0.51 v -2.78 h -0.69 v -0.52 z"
     class="cls-1"
     inkscape:connector-curvature="0"
     style="fill:#eee8f4" /><path
     id="path296"
     d="m 23.86,33.19 v 3.3 h -0.52 v -2.78 h -0.68 v -0.52 z"
     class="cls-1"
     inkscape:connector-curvature="0"
     style="fill:#eee8f4" /><path
     id="path298"
     d="m 27.5,34.82 c 0,1.07 -0.43,1.67 -1.15,1.67 -0.72,0 -1.21,-0.6 -1.21,-1.67 0,-1.07 0.43,-1.67 1.21,-1.67 0.78,0 1.15,0.6 1.15,1.67 z m -1.84,0 c 0,0.86 0.21,1.25 0.64,1.25 0.43,0 0.65,-0.39 0.65,-1.25 0,-0.86 -0.22,-1.24 -0.65,-1.24 -0.43,0 -0.64,0.42 -0.64,1.24 z"
     class="cls-1"
     inkscape:connector-curvature="0"
     style="fill:#eee8f4" /><path
     id="path300"
     d="m 29.39,33.19 v 3.3 h -0.52 v -2.78 h -0.68 v -0.52 z"
     class="cls-1"
     inkscape:connector-curvature="0"
     style="fill:#eee8f4" /><path
     id="path302"
     d="m 33,34.82 c 0,1.07 -0.42,1.67 -1.15,1.67 -0.73,0 -1.2,-0.6 -1.2,-1.67 0,-1.07 0.42,-1.67 1.2,-1.67 0.78,0 1.15,0.6 1.15,1.67 z m -1.84,0 c 0,0.86 0.21,1.25 0.64,1.25 0.43,0 0.65,-0.39 0.65,-1.25 0,-0.86 -0.22,-1.24 -0.65,-1.24 -0.43,0 -0.61,0.42 -0.61,1.24 z"
     class="cls-1"
     inkscape:connector-curvature="0"
     style="fill:#eee8f4" /><path
     id="path304"
     d="m 34.88,33.19 v 3.3 h -0.52 v -2.78 h -0.68 v -0.52 z"
     class="cls-1"
     inkscape:connector-curvature="0"
     style="fill:#eee8f4" /><path
     id="path306"
     d="m 38.52,34.82 c 0,1.07 -0.43,1.67 -1.16,1.67 -0.73,0 -1.2,-0.6 -1.2,-1.67 0,-1.07 0.43,-1.67 1.2,-1.67 0.77,0 1.16,0.6 1.16,1.67 z m -1.8,0 c 0,0.86 0.22,1.25 0.64,1.25 0.42,0 0.65,-0.39 0.65,-1.25 0,-0.86 -0.22,-1.24 -0.65,-1.24 -0.43,0 -0.64,0.42 -0.64,1.24 z"
     class="cls-1"
     inkscape:connector-curvature="0"
     style="fill:#eee8f4" /><path
     id="path308"
     d="m 41.31,34.82 c 0,1.07 -0.43,1.67 -1.16,1.67 -0.73,0 -1.2,-0.6 -1.2,-1.67 0,-1.07 0.43,-1.67 1.2,-1.67 0.77,0 1.16,0.6 1.16,1.67 z m -1.84,0 c 0,0.86 0.21,1.25 0.64,1.25 0.43,0 0.64,-0.39 0.64,-1.25 0,-0.86 -0.21,-1.24 -0.64,-1.24 -0.43,0 -0.64,0.42 -0.64,1.24 z"
     class="cls-1"
     inkscape:connector-curvature="0"
     style="fill:#eee8f4" /><path
     id="path310"
     d="m 68.7,29.83 c 0,6.64 -4.37,11 -10.36,11 a 8.6,8.6 0 0 1 -7.16,-3.5 v 11.2 H 47.47 V 19 H 51 v 3.42 a 8.58,8.58 0 0 1 7.31,-3.63 c 6.02,0.03 10.39,4.43 10.39,11.04 z m -3.75,0 c 0,-4.57 -3,-7.58 -6.92,-7.58 -3.92,0 -6.88,3 -6.88,7.58 0,4.58 3,7.62 6.88,7.62 3.88,0 6.97,-3.02 6.97,-7.62 z"
     class="cls-2"
     inkscape:connector-curvature="0"
     style="fill:#0b3954" /><path
     id="path312"
     d="M 92.28,31.13 H 75.65 a 7,7 0 0 0 7.42,6.32 7.48,7.48 0 0 0 5.93,-2.61 l 2,2.53 a 10,10 0 0 1 -8,3.5 c -6.61,0 -11,-4.6 -11,-11 0,-6.4 4.37,-11 10.28,-11 5.91,0 10.07,4.44 10.07,11.13 0,0.28 -0.04,0.76 -0.07,1.13 z M 75.65,28.32 H 88.8 a 6.59,6.59 0 0 0 -13.15,0 z"
     class="cls-2"
     inkscape:connector-curvature="0"
     style="fill:#0b3954" /><path
     id="path314"
     d="m 116.94,28.2 v 12.43 h -3.71 v -12 c 0,-4.24 -2,-6.32 -5.53,-6.32 -4,0 -6.5,2.48 -6.5,7.17 V 40.63 H 97.49 V 19 h 3.56 v 3.26 a 8.59,8.59 0 0 1 7.38,-3.47 c 4.99,0.03 8.51,3.05 8.51,9.41 z"
     class="cls-2"
     inkscape:connector-curvature="0"
     style="fill:#0b3954" /><path
     id="path316"
     d="m 121.88,37.37 1.43,-3.18 a 13.52,13.52 0 0 0 8.93,3.3 c 4.68,0 6.69,-1.92 6.69,-4.4 0,-7 -16.39,-2.57 -16.39,-13.17 0,-4.4 3.25,-8.15 10.36,-8.15 a 15.32,15.32 0 0 1 8.7,2.53 l -1.28,3.26 a 13.44,13.44 0 0 0 -7.42,-2.32 c -4.6,0 -6.57,2 -6.57,4.52 0,7 16.39,2.61 16.39,13.08 0,4.36 -3.33,8.11 -10.48,8.11 -4.13,0.05 -8.19,-1.46 -10.36,-3.58 z"
     class="cls-3"
     inkscape:connector-curvature="0"
     style="fill:#f1e9f4" /><path
     id="path318"
     d="m 159.34,39.36 a 6.76,6.76 0 0 1 -4.49,1.51 c -4.13,0 -6.49,-2.4 -6.49,-6.76 V 22.25 h -3.48 V 19 h 3.48 v -4.7 h 3.71 V 19 H 158 v 3.22 h -5.88 v 11.72 c 0,2.33 1.16,3.63 3.21,3.63 a 4.53,4.53 0 0 0 2.9,-1 z"
     class="cls-2"
     inkscape:connector-curvature="0"
     style="fill:#0b3954" /><path
     id="path320"
     d="m 174.84,18.82 v 3.79 a 6.34,6.34 0 0 0 -0.85,0 c -4,0 -6.46,2.57 -6.46,7.3 v 10.72 h -3.71 V 19 h 3.56 v 3.62 c 1.31,-2.49 3.86,-3.8 7.46,-3.8 z"
     class="cls-2"
     inkscape:connector-curvature="0"
     style="fill:#0b3954" /><path
     id="path322"
     d="M 197.65,31.13 H 181 a 7,7 0 0 0 7.42,6.32 7.48,7.48 0 0 0 5.92,-2.61 l 2,2.53 a 10,10 0 0 1 -8.08,3.5 c -6.61,0 -11,-4.6 -11,-11 0,-6.4 4.37,-11 10.28,-11 5.91,0 10.18,4.44 10.18,11.13 0,0.28 -0.04,0.76 -0.07,1.13 z M 181,28.32 h 13.15 a 6.59,6.59 0 0 0 -13.15,0 z"
     class="cls-2"
     inkscape:connector-curvature="0"
     style="fill:#0b3954" /><path
     id="path324"
     d="m 221.3,31.13 h -16.62 a 7,7 0 0 0 7.42,6.32 7.48,7.48 0 0 0 5.9,-2.61 l 2,2.53 a 10,10 0 0 1 -8.08,3.5 c -6.61,0 -11,-4.6 -11,-11 0,-6.4 4.36,-11 10.28,-11 5.92,0 10.18,4.44 10.18,11.13 0,0.28 -0.04,0.76 -0.08,1.13 z m -16.62,-2.81 h 13.14 a 6.58,6.58 0 0 0 -13.14,0 z"
     class="cls-2"
     inkscape:connector-curvature="0"
     style="fill:#0b3954" /><path
     id="path326"
     d="m 238,39.36 a 6.76,6.76 0 0 1 -4.49,1.51 c -4.13,0 -6.49,-2.4 -6.49,-6.76 V 22.25 h -3.48 V 19 h 3.48 v -4.7 h 3.71 V 19 h 5.88 v 3.22 h -5.88 v 11.72 c 0,2.33 1.16,3.63 3.21,3.63 a 4.55,4.55 0 0 0 2.9,-1 z"
     class="cls-2"
     inkscape:connector-curvature="0"
     style="fill:#0b3954" /><path
     id="path328"
     d="M 268.15,40.63 V 19.84 l -9.78,17.32 h -1.78 L 246.77,20 v 20.63 h -3.71 V 12.1 h 3.17 l 11.29,20 11.13,-20 h 3.17 v 28.53 z"
     class="cls-3"
     inkscape:connector-curvature="0"
     style="fill:#f1e9f4" /><path
     id="path330"
     d="m 295.67,27.59 v 13 h -3.52 v -2.82 c -1.24,2 -3.52,3.1 -6.73,3.1 -4.63,0 -7.57,-2.61 -7.57,-6.36 0,-3.46 2.12,-6.31 8.23,-6.31 H 292 v -0.78 c 0,-3.3 -1.82,-5.21 -5.49,-5.21 a 10,10 0 0 0 -6.5,2.32 l -1.54,-2.94 a 13.17,13.17 0 0 1 8.46,-2.77 c 5.57,0 8.74,2.86 8.74,8.77 z M 292,34 v -3 h -5.72 c -3.68,0 -4.72,1.51 -4.72,3.34 0,2.16 1.7,3.51 4.52,3.51 A 5.93,5.93 0 0 0 292,34 Z"
     class="cls-2"
     inkscape:connector-curvature="0"
     style="fill:#0b3954" /><path
     id="path332"
     d="m 323.77,29.83 c 0,6.64 -4.37,11 -10.36,11 a 8.58,8.58 0 0 1 -7.15,-3.5 v 11.2 h -3.71 V 19 h 3.55 v 3.42 a 8.6,8.6 0 0 1 7.31,-3.63 c 5.99,0.03 10.36,4.43 10.36,11.04 z m -3.75,0 c 0,-4.57 -3,-7.58 -6.92,-7.58 -3.92,0 -6.88,3 -6.88,7.58 0,4.58 3,7.62 6.88,7.62 3.88,0 6.9,-3.02 6.9,-7.62 z"
     class="cls-2"
     inkscape:connector-curvature="0"
     style="fill:#0b3954" /><path
     id="path334"
     d="m 326.82,39.9 a 0.77,0.77 0 1 1 1.53,0 0.77,0.77 0 1 1 -1.53,0 z"
     class="cls-3"
     inkscape:connector-curvature="0"
     style="fill:#f1e9f4" /><path
     id="path336"
     d="m 330.54,34.3 c 0,-3.75 2.52,-6.41 5.89,-6.41 3.37,0 5.9,2.66 5.9,6.41 0,3.75 -2.5,6.4 -5.9,6.4 -3.4,0 -5.89,-2.65 -5.89,-6.4 z m 11,0 c 0,-3.36 -2.19,-5.65 -5.13,-5.65 -2.94,0 -5.12,2.29 -5.12,5.65 0,3.36 2.21,5.7 5.14,5.7 2.93,0 5.13,-2.34 5.13,-5.7 z"
     class="cls-3"
     inkscape:connector-curvature="0"
     style="fill:#f1e9f4" /><path
     id="path338"
     d="m 351.5,27.89 v 0.81 h -0.21 c -2.79,0 -4.44,2 -4.44,5.21 v 6.72 h -0.76 V 28 h 0.74 v 3 a 4.57,4.57 0 0 1 4.67,-3.11 z"
     class="cls-3"
     inkscape:connector-curvature="0"
     style="fill:#f1e9f4" /><path
     id="path340"
     d="m 365.29,28 v 11.41 c 0,4.14 -1.89,6 -5.66,6 a 7.27,7.27 0 0 1 -5.38,-2 l 0.44,-0.61 a 6.79,6.79 0 0 0 4.92,1.92 c 3.35,0 4.92,-1.6 4.92,-5.18 v -2.71 a 5.53,5.53 0 0 1 -5.22,3.36 5.86,5.86 0 0 1 -5.94,-6.19 5.84,5.84 0 0 1 5.94,-6.14 5.54,5.54 0 0 1 5.24,3.39 V 28 Z m -0.74,6 a 5.21,5.21 0 1 0 -10.42,0 5.21,5.21 0 1 0 10.42,0 z"
     class="cls-3"
     inkscape:connector-curvature="0"
     style="fill:#f1e9f4" /><path
     id="path342"
     d="m 369.29,39.9 a 0.76,0.76 0 1 1 1.52,0 0.76,0.76 0 1 1 -1.52,0 z"
     class="cls-3"
     inkscape:connector-curvature="0"
     style="fill:#f1e9f4" /><path
     id="path344"
     d="m 383.41,32.44 v 8.19 h -0.74 v -2.54 a 4.61,4.61 0 0 1 -4.46,2.61 c -2.7,0 -4.3,-1.44 -4.3,-3.56 0,-1.85 1.11,-3.45 4.37,-3.45 h 4.36 v -1.25 c 0,-2.5 -1.27,-3.82 -3.69,-3.82 a 6,6 0 0 0 -4.28,1.71 l -0.41,-0.59 A 6.77,6.77 0 0 1 379,27.89 c 2.84,0 4.41,1.58 4.41,4.55 z M 382.64,37 v -2.66 h -4.36 c -2.61,0 -3.61,1.17 -3.61,2.76 0,1.8 1.34,2.92 3.58,2.92 A 4.35,4.35 0 0 0 382.64,37 Z"
     class="cls-3"
     inkscape:connector-curvature="0"
     style="fill:#f1e9f4" /><path
     id="path346"
     d="m 393.8,27.89 v 0.81 h -0.2 c -2.8,0 -4.44,2 -4.44,5.21 v 6.72 H 388.4 V 28 h 0.74 v 3 a 4.56,4.56 0 0 1 4.66,-3.11 z"
     class="cls-3"
     inkscape:connector-curvature="0"
     style="fill:#f1e9f4" /></g></svg>