<svg class="big-logo" version="1.1" id="Capa_1" xmlns="http://www.w3.org/2000/svg" xmlns:xlink="http://www.w3.org/1999/xlink" x="0px" y="0px" viewBox="0 0 950 140" style="enable-background:new 0 0 950 140;" xml:space="preserve" height="59px"><style type="text/css">
            .st0{fill:#EFE9F4;}
            .st1{fill:#0B3954;}
            .st2{fill:none;stroke:#EFE9F4;stroke-width:11;stroke-miterlimit:10;}
        </style>
        <g>
            <path class="st0" d="M189.5,38.9c-6.6,0-10.9,2.6-10.9,7.3c0,15.4,36,7.1,35.9,32.4c0,12.5-10.5,20.3-25.1,20.3
                c-10.5,0-20.4-4.5-27.2-11.1l4.9-10.2c6.9,6.6,15.4,10.2,22.6,10.2c7.8,0,12.5-3.1,12.5-8.5c0-15.7-36-6.9-36-31.9
                c0-12,9.8-19.6,24.3-19.6c8.7,0,17.1,2.9,23.3,7.2L209,45.4C201.8,40.8,194.5,38.9,189.5,38.9z"/>
            <path class="st0" d="M241,28.2l22,46.7l21.9-46.7h13.2v70.3h-10.4L287.7,46l-21,45.2h-7.3l-21-45.2v52.5h-10.6V28.2H241z"/>
            <path class="st1" d="M358.8,82.6h-33.6l-6.4,15.9h-11.7l29.4-70.3H348l29.1,70.3h-12L358.8,82.6z M354.5,72.1l-12.6-31.2
                l-12.6,31.2H354.5z"/>
            <path class="st1" d="M413.8,44.7v11c-10.2-0.6-16.7,5.7-17.5,14.9v27.9h-10.9V45.1h10.9v10.6C399.7,48.5,405.8,44.7,413.8,44.7z"/>
            <path class="st1" d="M468.6,45.1v48.2c0,15.4-10.4,25-26.3,25c-7.9,0-14.9-2.6-21-7l4.7-8.3c4.8,3.7,9.7,5.8,15.9,5.8
                c9.6,0,15.9-5.9,15.9-15.2v-6.7c-3.4,5.8-9.1,9-16.8,9c-13.7,0-22.9-10.4-22.9-25.8c0-15.1,9-25.3,22.5-25.4
                c7.8-0.1,13.6,3.2,17.1,9v-8.6H468.6z M457.7,70.4c0-9.6-6-16.4-14.6-16.4c-8.7,0-14.7,6.8-14.8,16.4c0.1,9.6,6,16.5,14.8,16.5
                C451.7,86.9,457.7,80,457.7,70.4z"/>
            <path class="st1" d="M528.4,76.2h-38.3c1.7,8.2,7.7,13.3,15.7,13.3c5.5,0,10.6-2.2,14.3-6.2l5.8,6.5c-5,5.7-12.2,9-20.9,9
                c-15.6,0-25.9-10.9-25.9-27c0-16.2,10.6-27.1,25.6-27.2C522.5,44.7,529.7,57,528.4,76.2z M518.9,67.8c-0.4-8.6-5.8-13.9-14.1-13.9
                c-8,0-13.7,5.3-14.9,13.9H518.9z"/>
            <path class="st1" d="M588.3,65.3v33.2h-11v-30c0-8-4.6-12.9-12.2-12.9c-8.4,0.1-13.6,6.2-14.4,14.6v28.4h-11V45.1h11v10.2
                c3.6-7.4,10.1-10.6,18.7-10.6C581.2,44.7,588.3,52.5,588.3,65.3z"/>
            <path class="st1" d="M631.6,95.1c-4,2.5-8.2,3.9-12.5,3.9c-7.6,0-14.2-4.6-14.2-15.6V55.7h-7.1v-8.6h7.1V32.5h10.9v14.7h14.9v8.6
                h-14.9v25.6c0,5.5,2,7.2,5.4,7.2c2.3,0,4.7-0.8,7.6-2.3L631.6,95.1z"/>
            <path class="st1" d="M653.5,29.9c0,3.9-2.8,6.8-6.4,6.8s-6.4-2.9-6.4-6.8c0-4,2.8-6.9,6.4-6.9S653.5,25.8,653.5,29.9z M652.6,45.1
                v53.4h-10.9V45.1H652.6z"/>
            <path class="st1" d="M717.2,65.3v33.2h-11v-30c0-8-4.6-12.9-12.2-12.9c-8.4,0.1-13.6,6.2-14.4,14.6v28.4h-10.9V45.1h10.9v10.2
                c3.6-7.4,10.1-10.6,18.7-10.6C710.2,44.7,717.2,52.5,717.2,65.3z"/>
            <path class="st1" d="M762.3,98.5V92c-3.6,4.7-9.4,7-16.8,7c-10.9,0-17.8-7.1-17.8-16.6c0-9.7,7-16,19.1-16.1h15.3v-1.6
                c0-6.7-4.1-10.7-12.1-10.7c-4.9,0-9.9,1.8-14.9,5.4l-4.5-8c7-4.4,12.2-6.7,21.8-6.7c13,0,20.4,7,20.5,18.8l0.1,35H762.3z
                 M762.2,79.7v-4.9h-13.7c-7.1,0-10.5,2-10.5,7.1c0,4.8,3.7,7.9,9.8,7.9C755.6,89.9,761.6,85.6,762.2,79.7z"/>
            <path class="st1" d="M786.7,96.8c0,1.3-0.9,2.2-2,2.2c-1.1,0-1.9-1-1.9-2.2c0-1.2,0.9-2.1,1.9-2.1
                C785.8,94.7,786.7,95.6,786.7,96.8z"/>
            <path class="st1" d="M821.9,82.8c0,9.2-6.1,15.7-14.6,15.7c-8.4,0-14.6-6.5-14.6-15.7c0-9.2,6.2-15.7,14.6-15.7
                C815.7,67.2,821.9,73.7,821.9,82.8z M795,82.8c0,7.9,5.2,13.4,12.3,13.4c7.2,0,12.3-5.5,12.3-13.4c0-7.8-5.1-13.3-12.3-13.3
                C800.1,69.6,795,75,795,82.8z"/>
            <path class="st1" d="M844,67.2v2.6c-6.5,0-10.5,4.6-11,11.8v16.9h-2.4V67.2h2.4v7.9C834.8,70.1,838.7,67.3,844,67.2z"/>
            <path class="st1" d="M875.4,67.2v27.8c0,9.2-5.6,15.1-14.3,15.1c-4.7-0.1-8.5-1.8-12-5.1l1.3-1.9c3.1,3.1,6.4,4.5,10.7,4.6
                c7.3,0.1,12.1-4.9,12.1-12.7v-5.9c-2,5-6.5,8-12.1,8c-8,0-13.7-6.3-13.7-15c0-8.8,5.7-15.1,13.7-15.1c5.7,0,10.1,3.1,12.2,8.1v-8
                H875.4z M873.1,82.3c0-7.4-5-12.8-11.8-12.8c-6.8,0-11.8,5.4-11.8,12.8c0,7.4,4.9,12.8,11.8,12.8C868.1,95.1,873.1,89.7,873.1,82.3
                z"/>
        </g>
        <ellipse transform="matrix(0.8039 -0.5948 0.5948 0.8039 -13.029 87.2752)" class="st2" cx="125.8" cy="63.4" rx="29.5" ry="29.5"/>
        <rect x="82" y="73.3" transform="matrix(0.5948 0.8039 -0.8039 0.5948 109.0071 -33.0618)" class="st0" width="10.5" height="36.5"/>
        <g>
            <g>
                <path class="st0" d="M106.3,43.3c0,2.5-1,3.9-2.7,3.9c-1.8,0-2.8-1.4-2.8-3.9c0-2.5,1-3.9,2.8-3.9
                    C105.3,39.4,106.3,40.8,106.3,43.3z M102,43.3c0,2,0.5,2.9,1.5,2.9c1,0,1.5-0.9,1.5-2.9c0-2-0.5-2.9-1.5-2.9
                    C102.5,40.4,102,41.4,102,43.3z"/>
                <path class="st0" d="M110.7,39.5v7.7h-1.2v-6.5h-1.6v-1.2H110.7z"/>
                <path class="st0" d="M117.1,39.5v7.7h-1.2v-6.5h-1.6v-1.2H117.1z"/>
                <path class="st0" d="M125.6,43.3c0,2.5-1,3.9-2.7,3.9c-1.8,0-2.8-1.4-2.8-3.9c0-2.5,1-3.9,2.8-3.9
                    C124.6,39.4,125.6,40.8,125.6,43.3z M121.3,43.3c0,2,0.5,2.9,1.5,2.9c1,0,1.5-0.9,1.5-2.9c0-2-0.5-2.9-1.5-2.9
                    C121.9,40.4,121.3,41.4,121.3,43.3z"/>
                <path class="st0" d="M130,39.5v7.7h-1.2v-6.5h-1.6v-1.2H130z"/>
                <path class="st0" d="M138.5,43.3c0,2.5-1,3.9-2.7,3.9c-1.8,0-2.8-1.4-2.8-3.9c0-2.5,1-3.9,2.8-3.9
                    C137.5,39.4,138.5,40.8,138.5,43.3z M134.2,43.3c0,2,0.5,2.9,1.5,2.9c1,0,1.5-0.9,1.5-2.9c0-2-0.5-2.9-1.5-2.9
                    C134.7,40.4,134.2,41.4,134.2,43.3z"/>
                <path class="st0" d="M144.9,43.3c0,2.5-1,3.9-2.7,3.9c-1.8,0-2.8-1.4-2.8-3.9c0-2.5,1-3.9,2.8-3.9C144,39.4,144.9,40.8,144.9,43.3
                    z M140.7,43.3c0,2,0.5,2.9,1.5,2.9c1,0,1.5-0.9,1.5-2.9c0-2-0.5-2.9-1.5-2.9C141.2,40.4,140.7,41.4,140.7,43.3z"/>
                <path class="st0" d="M149.3,39.5v7.7h-1.2v-6.5h-1.6v-1.2H149.3z"/>
                <path class="st0" d="M104.2,52.7v7.7H103v-6.5h-1.6v-1.2H104.2z"/>
                <path class="st0" d="M112.7,56.5c0,2.5-1,3.9-2.7,3.9c-1.8,0-2.8-1.4-2.8-3.9c0-2.5,1-3.9,2.8-3.9C111.8,52.6,112.7,54,112.7,56.5
                    z M108.5,56.5c0,2,0.5,2.9,1.5,2.9c1,0,1.5-0.9,1.5-2.9c0-2-0.5-2.9-1.5-2.9C109,53.6,108.5,54.6,108.5,56.5z"/>
                <path class="st0" d="M119.2,56.5c0,2.5-1,3.9-2.7,3.9c-1.8,0-2.8-1.4-2.8-3.9c0-2.5,1-3.9,2.8-3.9C118.2,52.6,119.2,54,119.2,56.5
                    z M114.9,56.5c0,2,0.5,2.9,1.5,2.9c1,0,1.5-0.9,1.5-2.9c0-2-0.5-2.9-1.5-2.9C115.4,53.6,114.9,54.6,114.9,56.5z"/>
                <path class="st0" d="M123.6,52.7v7.7h-1.2v-6.5h-1.6v-1.2H123.6z"/>
                <path class="st0" d="M132.1,56.5c0,2.5-1,3.9-2.7,3.9c-1.8,0-2.8-1.4-2.8-3.9c0-2.5,1-3.9,2.8-3.9C131.1,52.6,132.1,54,132.1,56.5
                    z M127.8,56.5c0,2,0.5,2.9,1.5,2.9c1,0,1.5-0.9,1.5-2.9c0-2-0.5-2.9-1.5-2.9C128.3,53.6,127.8,54.6,127.8,56.5z"/>
                <path class="st0" d="M136.4,52.7v7.7h-1.2v-6.5h-1.6v-1.2H136.4z"/>
                <path class="st0" d="M144.9,56.5c0,2.5-1,3.9-2.7,3.9c-1.8,0-2.8-1.4-2.8-3.9c0-2.5,1-3.9,2.8-3.9C144,52.6,144.9,54,144.9,56.5z
                     M140.7,56.5c0,2,0.5,2.9,1.5,2.9c1,0,1.5-0.9,1.5-2.9c0-2-0.5-2.9-1.5-2.9C141.2,53.6,140.7,54.6,140.7,56.5z"/>
                <path class="st0" d="M149.3,52.7v7.7h-1.2v-6.5h-1.6v-1.2H149.3z"/>
                <path class="st0" d="M106.3,69.7c0,2.5-1,3.9-2.7,3.9c-1.8,0-2.8-1.4-2.8-3.9c0-2.5,1-3.9,2.8-3.9
                    C105.3,65.8,106.3,67.2,106.3,69.7z M102,69.7c0,2,0.5,2.9,1.5,2.9c1,0,1.5-0.9,1.5-2.9c0-2-0.5-2.9-1.5-2.9
                    C102.5,66.8,102,67.8,102,69.7z"/>
                <path class="st0" d="M110.7,65.9v7.7h-1.2V67h-1.6v-1.2H110.7z"/>
                <path class="st0" d="M117.1,65.9v7.7h-1.2V67h-1.6v-1.2H117.1z"/>
                <path class="st0" d="M125.6,69.7c0,2.5-1,3.9-2.7,3.9c-1.8,0-2.8-1.4-2.8-3.9c0-2.5,1-3.9,2.8-3.9
                    C124.6,65.8,125.6,67.2,125.6,69.7z M121.3,69.7c0,2,0.5,2.9,1.5,2.9c1,0,1.5-0.9,1.5-2.9c0-2-0.5-2.9-1.5-2.9
                    C121.9,66.8,121.3,67.8,121.3,69.7z"/>
                <path class="st0" d="M132.1,69.7c0,2.5-1,3.9-2.7,3.9c-1.8,0-2.8-1.4-2.8-3.9c0-2.5,1-3.9,2.8-3.9
                    C131.1,65.8,132.1,67.2,132.1,69.7z M127.8,69.7c0,2,0.5,2.9,1.5,2.9c1,0,1.5-0.9,1.5-2.9c0-2-0.5-2.9-1.5-2.9
                    C128.3,66.8,127.8,67.8,127.8,69.7z"/>
                <path class="st0" d="M136.4,65.9v7.7h-1.2V67h-1.6v-1.2H136.4z"/>
                <path class="st0" d="M144.9,69.7c0,2.5-1,3.9-2.7,3.9c-1.8,0-2.8-1.4-2.8-3.9c0-2.5,1-3.9,2.8-3.9C144,65.8,144.9,67.2,144.9,69.7
                    z M140.7,69.7c0,2,0.5,2.9,1.5,2.9c1,0,1.5-0.9,1.5-2.9c0-2-0.5-2.9-1.5-2.9C141.2,66.8,140.7,67.8,140.7,69.7z"/>
                <path class="st0" d="M151.4,69.7c0,2.5-1,3.9-2.7,3.9c-1.8,0-2.8-1.4-2.8-3.9c0-2.5,1-3.9,2.8-3.9
                    C150.4,65.8,151.4,67.2,151.4,69.7z M147.1,69.7c0,2,0.5,2.9,1.5,2.9c1,0,1.5-0.9,1.5-2.9c0-2-0.5-2.9-1.5-2.9
                    C147.6,66.8,147.1,67.8,147.1,69.7z"/>
                <path class="st0" d="M104.2,79.1v7.7H103v-6.5h-1.6v-1.2H104.2z"/>
                <path class="st0" d="M110.7,79.1v7.7h-1.2v-6.5h-1.6v-1.2H110.7z"/>
                <path class="st0" d="M119.2,82.9c0,2.5-1,3.9-2.7,3.9c-1.8,0-2.8-1.4-2.8-3.9c0-2.5,1-3.9,2.8-3.9C118.2,79,119.2,80.4,119.2,82.9
                    z M114.9,82.9c0,2,0.5,2.9,1.5,2.9c1,0,1.5-0.9,1.5-2.9c0-2-0.5-2.9-1.5-2.9C115.4,80,114.9,81,114.9,82.9z"/>
                <path class="st0" d="M123.6,79.1v7.7h-1.2v-6.5h-1.6v-1.2H123.6z"/>
                <path class="st0" d="M132.1,82.9c0,2.5-1,3.9-2.7,3.9c-1.8,0-2.8-1.4-2.8-3.9c0-2.5,1-3.9,2.8-3.9C131.1,79,132.1,80.4,132.1,82.9
                    z M127.8,82.9c0,2,0.5,2.9,1.5,2.9c1,0,1.5-0.9,1.5-2.9c0-2-0.5-2.9-1.5-2.9C128.3,80,127.8,81,127.8,82.9z"/>
                <path class="st0" d="M136.4,79.1v7.7h-1.2v-6.5h-1.6v-1.2H136.4z"/>
                <path class="st0" d="M144.9,82.9c0,2.5-1,3.9-2.7,3.9c-1.8,0-2.8-1.4-2.8-3.9c0-2.5,1-3.9,2.8-3.9C144,79,144.9,80.4,144.9,82.9z
                     M140.7,82.9c0,2,0.5,2.9,1.5,2.9c1,0,1.5-0.9,1.5-2.9c0-2-0.5-2.9-1.5-2.9C141.2,80,140.7,81,140.7,82.9z"/>
                <path class="st0" d="M151.4,82.9c0,2.5-1,3.9-2.7,3.9c-1.8,0-2.8-1.4-2.8-3.9c0-2.5,1-3.9,2.8-3.9C150.4,79,151.4,80.4,151.4,82.9
                    z M147.1,82.9c0,2,0.5,2.9,1.5,2.9c1,0,1.5-0.9,1.5-2.9c0-2-0.5-2.9-1.5-2.9C147.6,80,147.1,81,147.1,82.9z"/>
            </g>
        </g>
</svg>