<svg id="Capa_1" data-name="Capa 1" xmlns="http://www.w3.org/2000/svg" viewBox="0 0 400 60"><defs><style>.cls-1{fill:#eee8f4;}.cls-2{fill:#0b3954;}.cls-3{fill:#f1e9f4;}</style></defs><title>logo-big</title><path class="cls-1" d="M30.37,41.48a15.49,15.49,0,0,1-2.25-.17A15,15,0,0,1,21.41,14.4h0A15,15,0,0,1,45.18,28.69,15,15,0,0,1,30.37,41.48ZM24.22,18.19a10.29,10.29,0,1,0,14.39,2.16,10.27,10.27,0,0,0-14.39-2.16Z"/><rect class="cls-1" x="6" y="36.27" width="15.65" height="4.5" transform="translate(-20.2 15.78) rotate(-36.5)"/><path class="cls-1" d="M22,17.84c0,1.07-.43,1.67-1.16,1.67s-1.2-.6-1.2-1.67.43-1.67,1.2-1.67S22,16.77,22,17.84Zm-1.84,0c0,.86.21,1.25.64,1.25s.64-.39.64-1.25-.21-1.24-.64-1.24S20.13,17,20.13,17.84Z"/><path class="cls-1" d="M23.86,16.21v3.3h-.52V16.73h-.68v-.52Z"/><path class="cls-1" d="M26.6,16.21v3.3h-.51V16.73H25.4v-.52Z"/><path class="cls-1" d="M30.25,17.84c0,1.07-.43,1.67-1.16,1.67s-1.2-.6-1.2-1.67.43-1.67,1.2-1.67S30.25,16.77,30.25,17.84Zm-1.85,0c0,.86.22,1.25.65,1.25s.64-.39.64-1.25-.21-1.24-.64-1.24S28.4,17,28.4,17.84Z"/><path class="cls-1" d="M32.13,16.21v3.3h-.51V16.73h-.69v-.52Z"/><path class="cls-1" d="M35.78,17.84c0,1.07-.43,1.67-1.16,1.67s-1.2-.6-1.2-1.67.43-1.67,1.2-1.67S35.78,16.77,35.78,17.84Zm-1.85,0c0,.86.22,1.25.65,1.25s.64-.39.64-1.25S35,16.6,34.58,16.6,33.93,17,33.93,17.84Z"/><path class="cls-1" d="M38.52,17.84c0,1.07-.43,1.67-1.16,1.67s-1.2-.6-1.2-1.67.43-1.67,1.2-1.67S38.52,16.77,38.52,17.84Zm-1.8,0c0,.86.22,1.25.64,1.25s.65-.39.65-1.25-.22-1.24-.65-1.24S36.72,17,36.72,17.84Z"/><path class="cls-1" d="M40.41,16.21v3.3h-.52V16.73h-.68v-.52Z"/><path class="cls-1" d="M21.07,21.87v3.3h-.51V22.39h-.69v-.52Z"/><path class="cls-1" d="M24.72,23.5c0,1.07-.43,1.67-1.16,1.67s-1.2-.6-1.2-1.67.43-1.67,1.2-1.67S24.72,22.43,24.72,23.5Zm-1.81,0c0,.86.22,1.25.65,1.25s.64-.39.64-1.25-.21-1.24-.64-1.24S22.91,22.69,22.91,23.5Z"/><path class="cls-1" d="M27.5,23.5c0,1.07-.43,1.67-1.15,1.67s-1.21-.6-1.21-1.67.43-1.67,1.21-1.67S27.5,22.43,27.5,23.5Zm-1.84,0c0,.86.21,1.25.64,1.25s.65-.39.65-1.25-.22-1.24-.65-1.24S25.66,22.69,25.66,23.5Z"/><path class="cls-1" d="M29.39,21.87v3.3h-.52V22.39h-.68v-.52Z"/><path class="cls-1" d="M33,23.5c0,1.07-.42,1.67-1.15,1.67s-1.2-.6-1.2-1.67.42-1.67,1.2-1.67S33,22.43,33,23.5Zm-1.84,0c0,.86.21,1.25.64,1.25s.65-.39.65-1.25-.22-1.24-.65-1.24S31.19,22.69,31.19,23.5Z"/><path class="cls-1" d="M34.88,21.87v3.3h-.52V22.39h-.68v-.52Z"/><path class="cls-1" d="M38.52,23.5c0,1.07-.43,1.67-1.16,1.67s-1.2-.6-1.2-1.67.43-1.67,1.2-1.67S38.52,22.43,38.52,23.5Zm-1.8,0c0,.86.22,1.25.64,1.25s.65-.39.65-1.25-.22-1.24-.65-1.24S36.72,22.69,36.72,23.5Z"/><path class="cls-1" d="M40.41,21.87v3.3h-.52V22.39h-.68v-.52Z"/><path class="cls-1" d="M22,29.16c0,1.07-.43,1.67-1.16,1.67s-1.2-.6-1.2-1.67.43-1.67,1.2-1.67S22,28.09,22,29.16Zm-1.84,0c0,.86.21,1.25.64,1.25s.64-.39.64-1.25-.21-1.24-.64-1.24S20.13,28.35,20.13,29.16Z"/><path class="cls-1" d="M23.86,27.53v3.3h-.52V28h-.68v-.51h1.2Z"/><path class="cls-1" d="M26.6,27.53v3.3h-.51V28H25.4v-.51h1.2Z"/><path class="cls-1" d="M30.25,29.16c0,1.07-.43,1.67-1.16,1.67s-1.2-.6-1.2-1.67.43-1.67,1.2-1.67S30.25,28.09,30.25,29.16Zm-1.85,0c0,.86.22,1.25.65,1.25s.64-.39.64-1.25-.21-1.24-.64-1.24S28.4,28.35,28.4,29.16Z"/><path class="cls-1" d="M33,29.16c0,1.07-.42,1.67-1.15,1.67s-1.2-.6-1.2-1.67.42-1.67,1.2-1.67S33,28.09,33,29.16Zm-1.84,0c0,.86.21,1.25.64,1.25s.65-.39.65-1.25-.22-1.24-.65-1.24S31.19,28.35,31.19,29.16Z"/><path class="cls-1" d="M34.88,27.53v3.3h-.52V28h-.68v-.51h1.2Z"/><path class="cls-1" d="M38.52,29.16c0,1.07-.43,1.67-1.16,1.67s-1.2-.6-1.2-1.67.43-1.67,1.2-1.67S38.52,28.09,38.52,29.16Zm-1.8,0c0,.86.22,1.25.64,1.25S38,30,38,29.16s-.22-1.24-.65-1.24S36.72,28.35,36.72,29.16Z"/><path class="cls-1" d="M41.31,29.16c0,1.07-.43,1.67-1.16,1.67s-1.2-.6-1.2-1.67.43-1.67,1.2-1.67S41.31,28.09,41.31,29.16Zm-1.84,0c0,.86.21,1.25.64,1.25s.64-.39.64-1.25-.21-1.24-.64-1.24S39.47,28.35,39.47,29.16Z"/><path class="cls-1" d="M21.07,33.19v3.3h-.51V33.71h-.69v-.52Z"/><path class="cls-1" d="M23.86,33.19v3.3h-.52V33.71h-.68v-.52Z"/><path class="cls-1" d="M27.5,34.82c0,1.07-.43,1.67-1.15,1.67s-1.21-.6-1.21-1.67.43-1.67,1.21-1.67S27.5,33.75,27.5,34.82Zm-1.84,0c0,.86.21,1.25.64,1.25s.65-.39.65-1.25-.22-1.24-.65-1.24S25.66,34,25.66,34.82Z"/><path class="cls-1" d="M29.39,33.19v3.3h-.52V33.71h-.68v-.52Z"/><path class="cls-1" d="M33,34.82c0,1.07-.42,1.67-1.15,1.67s-1.2-.6-1.2-1.67.42-1.67,1.2-1.67S33,33.75,33,34.82Zm-1.84,0c0,.86.21,1.25.64,1.25s.65-.39.65-1.25-.22-1.24-.65-1.24S31.19,34,31.19,34.82Z"/><path class="cls-1" d="M34.88,33.19v3.3h-.52V33.71h-.68v-.52Z"/><path class="cls-1" d="M38.52,34.82c0,1.07-.43,1.67-1.16,1.67s-1.2-.6-1.2-1.67.43-1.67,1.2-1.67S38.52,33.75,38.52,34.82Zm-1.8,0c0,.86.22,1.25.64,1.25s.65-.39.65-1.25-.22-1.24-.65-1.24S36.72,34,36.72,34.82Z"/><path class="cls-1" d="M41.31,34.82c0,1.07-.43,1.67-1.16,1.67s-1.2-.6-1.2-1.67.43-1.67,1.2-1.67S41.31,33.75,41.31,34.82Zm-1.84,0c0,.86.21,1.25.64,1.25s.64-.39.64-1.25-.21-1.24-.64-1.24S39.47,34,39.47,34.82Z"/><path class="cls-2" d="M68.7,29.83c0,6.64-4.37,11-10.36,11a8.6,8.6,0,0,1-7.16-3.5V48.53H47.47V19H51v3.42a8.58,8.58,0,0,1,7.31-3.63C64.33,18.82,68.7,23.22,68.7,29.83Zm-3.75,0c0-4.57-3-7.58-6.92-7.58s-6.88,3-6.88,7.58,3,7.62,6.88,7.62S65,34.43,65,29.83Z"/><path class="cls-2" d="M92.28,31.13H75.65a7,7,0,0,0,7.42,6.32A7.48,7.48,0,0,0,89,34.84L91,37.37A10,10,0,0,1,83,40.87c-6.61,0-11-4.6-11-11s4.37-11,10.28-11S92.35,23.31,92.35,30C92.35,30.28,92.31,30.76,92.28,31.13ZM75.65,28.32H88.8a6.59,6.59,0,0,0-13.15,0Z"/><path class="cls-2" d="M116.94,28.2V40.63h-3.71v-12c0-4.24-2-6.32-5.53-6.32-4,0-6.5,2.48-6.5,7.17V40.63H97.49V19h3.56v3.26a8.59,8.59,0,0,1,7.38-3.47C113.42,18.82,116.94,21.84,116.94,28.2Z"/><path class="cls-3" d="M121.88,37.37l1.43-3.18a13.52,13.52,0,0,0,8.93,3.3c4.68,0,6.69-1.92,6.69-4.4,0-7-16.39-2.57-16.39-13.17,0-4.4,3.25-8.15,10.36-8.15a15.32,15.32,0,0,1,8.7,2.53l-1.28,3.26a13.44,13.44,0,0,0-7.42-2.32c-4.6,0-6.57,2-6.57,4.52,0,7,16.39,2.61,16.39,13.08,0,4.36-3.33,8.11-10.48,8.11C128.11,41,124.05,39.49,121.88,37.37Z"/><path class="cls-2" d="M159.34,39.36a6.76,6.76,0,0,1-4.49,1.51c-4.13,0-6.49-2.4-6.49-6.76V22.25h-3.48V19h3.48V14.3h3.71V19H158v3.22h-5.88V33.94c0,2.33,1.16,3.63,3.21,3.63a4.53,4.53,0,0,0,2.9-1Z"/><path class="cls-2" d="M174.84,18.82v3.79a6.34,6.34,0,0,0-.85,0c-4,0-6.46,2.57-6.46,7.3V40.63h-3.71V19h3.56v3.62C168.69,20.13,171.24,18.82,174.84,18.82Z"/><path class="cls-2" d="M197.65,31.13H181a7,7,0,0,0,7.42,6.32,7.48,7.48,0,0,0,5.92-2.61l2,2.53a10,10,0,0,1-8.08,3.5c-6.61,0-11-4.6-11-11s4.37-11,10.28-11S197.72,23.31,197.72,30C197.72,30.28,197.68,30.76,197.65,31.13ZM181,28.32h13.15a6.59,6.59,0,0,0-13.15,0Z"/><path class="cls-2" d="M221.3,31.13H204.68a7,7,0,0,0,7.42,6.32A7.48,7.48,0,0,0,218,34.84l2,2.53a10,10,0,0,1-8.08,3.5c-6.61,0-11-4.6-11-11s4.36-11,10.28-11S221.38,23.31,221.38,30C221.38,30.28,221.34,30.76,221.3,31.13Zm-16.62-2.81h13.14a6.58,6.58,0,0,0-13.14,0Z"/><path class="cls-2" d="M238,39.36a6.76,6.76,0,0,1-4.49,1.51c-4.13,0-6.49-2.4-6.49-6.76V22.25h-3.48V19h3.48V14.3h3.71V19h5.88v3.22h-5.88V33.94c0,2.33,1.16,3.63,3.21,3.63a4.55,4.55,0,0,0,2.9-1Z"/><path class="cls-3" d="M268.15,40.63l0-20.79-9.78,17.32h-1.78L246.77,20V40.63h-3.71V12.1h3.17l11.29,20,11.13-20h3.17l0,28.53Z"/><path class="cls-2" d="M295.67,27.59v13h-3.52V37.77c-1.24,2-3.52,3.1-6.73,3.1-4.63,0-7.57-2.61-7.57-6.36,0-3.46,2.12-6.31,8.23-6.31H292v-.78c0-3.3-1.82-5.21-5.49-5.21a10,10,0,0,0-6.5,2.32l-1.54-2.94a13.17,13.17,0,0,1,8.46-2.77C292.5,18.82,295.67,21.68,295.67,27.59ZM292,34V31h-5.72c-3.68,0-4.72,1.51-4.72,3.34,0,2.16,1.7,3.51,4.52,3.51A5.93,5.93,0,0,0,292,34Z"/><path class="cls-2" d="M323.77,29.83c0,6.64-4.37,11-10.36,11a8.58,8.58,0,0,1-7.15-3.5V48.53h-3.71V19h3.55v3.42a8.6,8.6,0,0,1,7.31-3.63C319.4,18.82,323.77,23.22,323.77,29.83Zm-3.75,0c0-4.57-3-7.58-6.92-7.58s-6.88,3-6.88,7.58,3,7.62,6.88,7.62S320,34.43,320,29.83Z"/><path class="cls-3" d="M326.82,39.9a.77.77,0,1,1,1.53,0,.77.77,0,1,1-1.53,0Z"/><path class="cls-3" d="M330.54,34.3c0-3.75,2.52-6.41,5.89-6.41s5.9,2.66,5.9,6.41-2.5,6.4-5.9,6.4S330.54,38.05,330.54,34.3Zm11,0c0-3.36-2.19-5.65-5.13-5.65s-5.12,2.29-5.12,5.65S333.5,40,336.43,40,341.56,37.66,341.56,34.3Z"/><path class="cls-3" d="M351.5,27.89v.81h-.21c-2.79,0-4.44,2-4.44,5.21v6.72h-.76V28h.74v3A4.57,4.57,0,0,1,351.5,27.89Z"/><path class="cls-3" d="M365.29,28V39.41c0,4.14-1.89,6-5.66,6a7.27,7.27,0,0,1-5.38-2l.44-.61a6.79,6.79,0,0,0,4.92,1.92c3.35,0,4.92-1.6,4.92-5.18V36.83a5.53,5.53,0,0,1-5.22,3.36A5.86,5.86,0,0,1,353.37,34a5.84,5.84,0,0,1,5.94-6.14,5.54,5.54,0,0,1,5.24,3.39V28Zm-.74,6a5.21,5.21,0,1,0-10.42,0,5.21,5.21,0,1,0,10.42,0Z"/><path class="cls-3" d="M369.29,39.9a.76.76,0,1,1,1.52,0,.76.76,0,1,1-1.52,0Z"/><path class="cls-3" d="M383.41,32.44v8.19h-.74V38.09a4.61,4.61,0,0,1-4.46,2.61c-2.7,0-4.3-1.44-4.3-3.56,0-1.85,1.11-3.45,4.37-3.45h4.36V32.44c0-2.5-1.27-3.82-3.69-3.82a6,6,0,0,0-4.28,1.71l-.41-.59A6.77,6.77,0,0,1,379,27.89C381.84,27.89,383.41,29.47,383.41,32.44ZM382.64,37V34.34h-4.36c-2.61,0-3.61,1.17-3.61,2.76,0,1.8,1.34,2.92,3.58,2.92A4.35,4.35,0,0,0,382.64,37Z"/><path class="cls-3" d="M393.8,27.89v.81h-.2c-2.8,0-4.44,2-4.44,5.21v6.72h-.76V28h.74v3A4.56,4.56,0,0,1,393.8,27.89Z"/></svg>